<mxfile host="Electron" modified="2024-05-11T19:30:07.693Z" agent="Mozilla/5.0 (Windows NT 10.0; Win64; x64) AppleWebKit/537.36 (KHTML, like Gecko) draw.io/21.2.8 Chrome/112.0.5615.165 Electron/24.2.0 Safari/537.36" etag="pga-mytVbEKctdsZWeP1" version="21.2.8" type="device">
  <diagram id="C5RBs43oDa-KdzZeNtuy" name="Page-1">
    <mxGraphModel dx="3225" dy="1573" grid="1" gridSize="10" guides="1" tooltips="1" connect="1" arrows="1" fold="1" page="1" pageScale="1" pageWidth="827" pageHeight="1169" math="0" shadow="0">
      <root>
        <mxCell id="WIyWlLk6GJQsqaUBKTNV-0" />
        <mxCell id="WIyWlLk6GJQsqaUBKTNV-1" parent="WIyWlLk6GJQsqaUBKTNV-0" />
        <mxCell id="BZXfZNNT6n7So_3NprRM-1" value="Property" style="swimlane;fontStyle=0;childLayout=stackLayout;horizontal=1;startSize=26;fillColor=#CDA2BE;horizontalStack=0;resizeParent=1;resizeParentMax=0;resizeLast=0;collapsible=1;marginBottom=0;html=1;" parent="WIyWlLk6GJQsqaUBKTNV-1" vertex="1">
          <mxGeometry x="342" y="396" width="140" height="130" as="geometry" />
        </mxCell>
        <mxCell id="BZXfZNNT6n7So_3NprRM-2" value="+ ID&amp;nbsp;(String)" style="text;strokeColor=none;fillColor=#E6D0DE;align=left;verticalAlign=top;spacingLeft=4;spacingRight=4;overflow=hidden;rotatable=0;points=[[0,0.5],[1,0.5]];portConstraint=eastwest;whiteSpace=wrap;html=1;" parent="BZXfZNNT6n7So_3NprRM-1" vertex="1">
          <mxGeometry y="26" width="140" height="26" as="geometry" />
        </mxCell>
        <mxCell id="BZXfZNNT6n7So_3NprRM-3" value="+ Name&amp;nbsp;(String)" style="text;strokeColor=none;fillColor=#E6D0DE;align=left;verticalAlign=top;spacingLeft=4;spacingRight=4;overflow=hidden;rotatable=0;points=[[0,0.5],[1,0.5]];portConstraint=eastwest;whiteSpace=wrap;html=1;" parent="BZXfZNNT6n7So_3NprRM-1" vertex="1">
          <mxGeometry y="52" width="140" height="26" as="geometry" />
        </mxCell>
        <mxCell id="BZXfZNNT6n7So_3NprRM-4" value="+ Location&amp;nbsp;(String)" style="text;strokeColor=none;fillColor=#E6D0DE;align=left;verticalAlign=top;spacingLeft=4;spacingRight=4;overflow=hidden;rotatable=0;points=[[0,0.5],[1,0.5]];portConstraint=eastwest;whiteSpace=wrap;html=1;" parent="BZXfZNNT6n7So_3NprRM-1" vertex="1">
          <mxGeometry y="78" width="140" height="26" as="geometry" />
        </mxCell>
        <mxCell id="BZXfZNNT6n7So_3NprRM-5" value="+ Color&amp;nbsp;(String)" style="text;strokeColor=none;fillColor=#E6D0DE;align=left;verticalAlign=top;spacingLeft=4;spacingRight=4;overflow=hidden;rotatable=0;points=[[0,0.5],[1,0.5]];portConstraint=eastwest;whiteSpace=wrap;html=1;" parent="BZXfZNNT6n7So_3NprRM-1" vertex="1">
          <mxGeometry y="104" width="140" height="26" as="geometry" />
        </mxCell>
        <mxCell id="BZXfZNNT6n7So_3NprRM-6" value="Invitation" style="swimlane;fontStyle=0;childLayout=stackLayout;horizontal=1;startSize=26;fillColor=#CCFF99;horizontalStack=0;resizeParent=1;resizeParentMax=0;resizeLast=0;collapsible=1;marginBottom=0;html=1;" parent="WIyWlLk6GJQsqaUBKTNV-1" vertex="1">
          <mxGeometry x="568" y="180" width="181" height="182" as="geometry" />
        </mxCell>
        <mxCell id="BZXfZNNT6n7So_3NprRM-7" value="+ FromEmail&amp;nbsp;(String)" style="text;strokeColor=none;fillColor=#E6FFCC;align=left;verticalAlign=top;spacingLeft=4;spacingRight=4;overflow=hidden;rotatable=0;points=[[0,0.5],[1,0.5]];portConstraint=eastwest;whiteSpace=wrap;html=1;" parent="BZXfZNNT6n7So_3NprRM-6" vertex="1">
          <mxGeometry y="26" width="181" height="26" as="geometry" />
        </mxCell>
        <mxCell id="BZXfZNNT6n7So_3NprRM-8" value="+ FromProfileImage&amp;nbsp;(String)" style="text;strokeColor=none;fillColor=#E6FFCC;align=left;verticalAlign=top;spacingLeft=4;spacingRight=4;overflow=hidden;rotatable=0;points=[[0,0.5],[1,0.5]];portConstraint=eastwest;whiteSpace=wrap;html=1;" parent="BZXfZNNT6n7So_3NprRM-6" vertex="1">
          <mxGeometry y="52" width="181" height="26" as="geometry" />
        </mxCell>
        <mxCell id="BZXfZNNT6n7So_3NprRM-9" value="+ OwnerId&amp;nbsp;(String)" style="text;strokeColor=none;fillColor=#E6FFCC;align=left;verticalAlign=top;spacingLeft=4;spacingRight=4;overflow=hidden;rotatable=0;points=[[0,0.5],[1,0.5]];portConstraint=eastwest;whiteSpace=wrap;html=1;" parent="BZXfZNNT6n7So_3NprRM-6" vertex="1">
          <mxGeometry y="78" width="181" height="26" as="geometry" />
        </mxCell>
        <mxCell id="BZXfZNNT6n7So_3NprRM-10" value="+ PropertyName&amp;nbsp;(String)" style="text;strokeColor=none;fillColor=#E6FFCC;align=left;verticalAlign=top;spacingLeft=4;spacingRight=4;overflow=hidden;rotatable=0;points=[[0,0.5],[1,0.5]];portConstraint=eastwest;whiteSpace=wrap;html=1;" parent="BZXfZNNT6n7So_3NprRM-6" vertex="1">
          <mxGeometry y="104" width="181" height="26" as="geometry" />
        </mxCell>
        <mxCell id="BZXfZNNT6n7So_3NprRM-12" value="+ State (Bolean)" style="text;strokeColor=none;fillColor=#E6FFCC;align=left;verticalAlign=top;spacingLeft=4;spacingRight=4;overflow=hidden;rotatable=0;points=[[0,0.5],[1,0.5]];portConstraint=eastwest;whiteSpace=wrap;html=1;" parent="BZXfZNNT6n7So_3NprRM-6" vertex="1">
          <mxGeometry y="130" width="181" height="26" as="geometry" />
        </mxCell>
        <mxCell id="BZXfZNNT6n7So_3NprRM-13" value="+ IsNew (Bolean)" style="text;strokeColor=none;fillColor=#E6FFCC;align=left;verticalAlign=top;spacingLeft=4;spacingRight=4;overflow=hidden;rotatable=0;points=[[0,0.5],[1,0.5]];portConstraint=eastwest;whiteSpace=wrap;html=1;" parent="BZXfZNNT6n7So_3NprRM-6" vertex="1">
          <mxGeometry y="156" width="181" height="26" as="geometry" />
        </mxCell>
        <mxCell id="BZXfZNNT6n7So_3NprRM-14" value="Inversor Now" style="swimlane;fontStyle=0;childLayout=stackLayout;horizontal=1;startSize=26;fillColor=#99FFFF;horizontalStack=0;resizeParent=1;resizeParentMax=0;resizeLast=0;collapsible=1;marginBottom=0;html=1;" parent="WIyWlLk6GJQsqaUBKTNV-1" vertex="1">
          <mxGeometry x="568" y="396" width="140" height="104" as="geometry" />
        </mxCell>
        <mxCell id="BZXfZNNT6n7So_3NprRM-16" value="+ Battery (Int)" style="text;strokeColor=none;fillColor=#CCFFFF;align=left;verticalAlign=top;spacingLeft=4;spacingRight=4;overflow=hidden;rotatable=0;points=[[0,0.5],[1,0.5]];portConstraint=eastwest;whiteSpace=wrap;html=1;" parent="BZXfZNNT6n7So_3NprRM-14" vertex="1">
          <mxGeometry y="26" width="140" height="26" as="geometry" />
        </mxCell>
        <mxCell id="BZXfZNNT6n7So_3NprRM-17" value="+ Consumption (Int)" style="text;strokeColor=none;fillColor=#CCFFFF;align=left;verticalAlign=top;spacingLeft=4;spacingRight=4;overflow=hidden;rotatable=0;points=[[0,0.5],[1,0.5]];portConstraint=eastwest;whiteSpace=wrap;html=1;" parent="BZXfZNNT6n7So_3NprRM-14" vertex="1">
          <mxGeometry y="52" width="140" height="26" as="geometry" />
        </mxCell>
        <mxCell id="BZXfZNNT6n7So_3NprRM-18" value="+ Gain (Int)" style="text;strokeColor=none;fillColor=#CCFFFF;align=left;verticalAlign=top;spacingLeft=4;spacingRight=4;overflow=hidden;rotatable=0;points=[[0,0.5],[1,0.5]];portConstraint=eastwest;whiteSpace=wrap;html=1;" parent="BZXfZNNT6n7So_3NprRM-14" vertex="1">
          <mxGeometry y="78" width="140" height="26" as="geometry" />
        </mxCell>
        <mxCell id="BZXfZNNT6n7So_3NprRM-19" value="Smart Device" style="swimlane;fontStyle=0;childLayout=stackLayout;horizontal=1;startSize=26;fillColor=#FF99CC;horizontalStack=0;resizeParent=1;resizeParentMax=0;resizeLast=0;collapsible=1;marginBottom=0;html=1;" parent="WIyWlLk6GJQsqaUBKTNV-1" vertex="1">
          <mxGeometry x="118" y="650" width="211" height="338" as="geometry" />
        </mxCell>
        <mxCell id="BZXfZNNT6n7So_3NprRM-21" value="+ ID (String)" style="text;strokeColor=none;fillColor=#FFCCE6;align=left;verticalAlign=top;spacingLeft=4;spacingRight=4;overflow=hidden;rotatable=0;points=[[0,0.5],[1,0.5]];portConstraint=eastwest;whiteSpace=wrap;html=1;" parent="BZXfZNNT6n7So_3NprRM-19" vertex="1">
          <mxGeometry y="26" width="211" height="26" as="geometry" />
        </mxCell>
        <mxCell id="BZXfZNNT6n7So_3NprRM-22" value="+ Name&amp;nbsp;(String)" style="text;strokeColor=none;fillColor=#FFCCE6;align=left;verticalAlign=top;spacingLeft=4;spacingRight=4;overflow=hidden;rotatable=0;points=[[0,0.5],[1,0.5]];portConstraint=eastwest;whiteSpace=wrap;html=1;" parent="BZXfZNNT6n7So_3NprRM-19" vertex="1">
          <mxGeometry y="52" width="211" height="26" as="geometry" />
        </mxCell>
        <mxCell id="BZXfZNNT6n7So_3NprRM-23" value="+ Type&amp;nbsp;(String)" style="text;strokeColor=none;fillColor=#FFCCE6;align=left;verticalAlign=top;spacingLeft=4;spacingRight=4;overflow=hidden;rotatable=0;points=[[0,0.5],[1,0.5]];portConstraint=eastwest;whiteSpace=wrap;html=1;" parent="BZXfZNNT6n7So_3NprRM-19" vertex="1">
          <mxGeometry y="78" width="211" height="26" as="geometry" />
        </mxCell>
        <mxCell id="BZXfZNNT6n7So_3NprRM-24" value="+ Color&amp;nbsp;(String)" style="text;strokeColor=none;fillColor=#FFCCE6;align=left;verticalAlign=top;spacingLeft=4;spacingRight=4;overflow=hidden;rotatable=0;points=[[0,0.5],[1,0.5]];portConstraint=eastwest;whiteSpace=wrap;html=1;" parent="BZXfZNNT6n7So_3NprRM-19" vertex="1">
          <mxGeometry y="104" width="211" height="26" as="geometry" />
        </mxCell>
        <mxCell id="BZXfZNNT6n7So_3NprRM-25" value="+ TimeZones (List&amp;lt;DateTimeRange&amp;gt;)" style="text;strokeColor=none;fillColor=#FFCCE6;align=left;verticalAlign=top;spacingLeft=4;spacingRight=4;overflow=hidden;rotatable=0;points=[[0,0.5],[1,0.5]];portConstraint=eastwest;whiteSpace=wrap;html=1;" parent="BZXfZNNT6n7So_3NprRM-19" vertex="1">
          <mxGeometry y="130" width="211" height="26" as="geometry" />
        </mxCell>
        <mxCell id="BZXfZNNT6n7So_3NprRM-26" value="+ Days (List&amp;lt;Boolean&amp;gt;)" style="text;strokeColor=none;fillColor=#FFCCE6;align=left;verticalAlign=top;spacingLeft=4;spacingRight=4;overflow=hidden;rotatable=0;points=[[0,0.5],[1,0.5]];portConstraint=eastwest;whiteSpace=wrap;html=1;" parent="BZXfZNNT6n7So_3NprRM-19" vertex="1">
          <mxGeometry y="156" width="211" height="26" as="geometry" />
        </mxCell>
        <mxCell id="BZXfZNNT6n7So_3NprRM-27" value="+ BatteryRange&amp;nbsp;(String)" style="text;strokeColor=none;fillColor=#FFCCE6;align=left;verticalAlign=top;spacingLeft=4;spacingRight=4;overflow=hidden;rotatable=0;points=[[0,0.5],[1,0.5]];portConstraint=eastwest;whiteSpace=wrap;html=1;" parent="BZXfZNNT6n7So_3NprRM-19" vertex="1">
          <mxGeometry y="182" width="211" height="26" as="geometry" />
        </mxCell>
        <mxCell id="BZXfZNNT6n7So_3NprRM-28" value="+ ProductionRange&amp;nbsp;(String)" style="text;strokeColor=none;fillColor=#FFCCE6;align=left;verticalAlign=top;spacingLeft=4;spacingRight=4;overflow=hidden;rotatable=0;points=[[0,0.5],[1,0.5]];portConstraint=eastwest;whiteSpace=wrap;html=1;" parent="BZXfZNNT6n7So_3NprRM-19" vertex="1">
          <mxGeometry y="208" width="211" height="26" as="geometry" />
        </mxCell>
        <mxCell id="BZXfZNNT6n7So_3NprRM-29" value="+ TemperatureRange&amp;nbsp;(String)" style="text;strokeColor=none;fillColor=#FFCCE6;align=left;verticalAlign=top;spacingLeft=4;spacingRight=4;overflow=hidden;rotatable=0;points=[[0,0.5],[1,0.5]];portConstraint=eastwest;whiteSpace=wrap;html=1;" parent="BZXfZNNT6n7So_3NprRM-19" vertex="1">
          <mxGeometry y="234" width="211" height="26" as="geometry" />
        </mxCell>
        <mxCell id="BZXfZNNT6n7So_3NprRM-30" value="+ RainRange&amp;nbsp;(String)" style="text;strokeColor=none;fillColor=#FFCCE6;align=left;verticalAlign=top;spacingLeft=4;spacingRight=4;overflow=hidden;rotatable=0;points=[[0,0.5],[1,0.5]];portConstraint=eastwest;whiteSpace=wrap;html=1;" parent="BZXfZNNT6n7So_3NprRM-19" vertex="1">
          <mxGeometry y="260" width="211" height="26" as="geometry" />
        </mxCell>
        <mxCell id="BZXfZNNT6n7So_3NprRM-31" value="+ IsManualMode (Bolean)" style="text;strokeColor=none;fillColor=#FFCCE6;align=left;verticalAlign=top;spacingLeft=4;spacingRight=4;overflow=hidden;rotatable=0;points=[[0,0.5],[1,0.5]];portConstraint=eastwest;whiteSpace=wrap;html=1;" parent="BZXfZNNT6n7So_3NprRM-19" vertex="1">
          <mxGeometry y="286" width="211" height="26" as="geometry" />
        </mxCell>
        <mxCell id="BZXfZNNT6n7So_3NprRM-32" value="+ IsOn (Bolean)" style="text;strokeColor=none;fillColor=#FFCCE6;align=left;verticalAlign=top;spacingLeft=4;spacingRight=4;overflow=hidden;rotatable=0;points=[[0,0.5],[1,0.5]];portConstraint=eastwest;whiteSpace=wrap;html=1;" parent="BZXfZNNT6n7So_3NprRM-19" vertex="1">
          <mxGeometry y="312" width="211" height="26" as="geometry" />
        </mxCell>
        <mxCell id="BZXfZNNT6n7So_3NprRM-33" value="Day Weather" style="swimlane;fontStyle=0;childLayout=stackLayout;horizontal=1;startSize=26;fillColor=#FF9999;horizontalStack=0;resizeParent=1;resizeParentMax=0;resizeLast=0;collapsible=1;marginBottom=0;html=1;" parent="WIyWlLk6GJQsqaUBKTNV-1" vertex="1">
          <mxGeometry x="78" y="362" width="180" height="260" as="geometry" />
        </mxCell>
        <mxCell id="BZXfZNNT6n7So_3NprRM-35" value="+ DateTime (DateTimeRange)" style="text;strokeColor=none;fillColor=#FFCCCC;align=left;verticalAlign=top;spacingLeft=4;spacingRight=4;overflow=hidden;rotatable=0;points=[[0,0.5],[1,0.5]];portConstraint=eastwest;whiteSpace=wrap;html=1;" parent="BZXfZNNT6n7So_3NprRM-33" vertex="1">
          <mxGeometry y="26" width="180" height="26" as="geometry" />
        </mxCell>
        <mxCell id="BZXfZNNT6n7So_3NprRM-36" value="+ Temperature (Double)" style="text;strokeColor=none;fillColor=#FFCCCC;align=left;verticalAlign=top;spacingLeft=4;spacingRight=4;overflow=hidden;rotatable=0;points=[[0,0.5],[1,0.5]];portConstraint=eastwest;whiteSpace=wrap;html=1;" parent="BZXfZNNT6n7So_3NprRM-33" vertex="1">
          <mxGeometry y="52" width="180" height="26" as="geometry" />
        </mxCell>
        <mxCell id="BZXfZNNT6n7So_3NprRM-37" value="+ TemperatureMin (Double)" style="text;strokeColor=none;fillColor=#FFCCCC;align=left;verticalAlign=top;spacingLeft=4;spacingRight=4;overflow=hidden;rotatable=0;points=[[0,0.5],[1,0.5]];portConstraint=eastwest;whiteSpace=wrap;html=1;" parent="BZXfZNNT6n7So_3NprRM-33" vertex="1">
          <mxGeometry y="78" width="180" height="26" as="geometry" />
        </mxCell>
        <mxCell id="BZXfZNNT6n7So_3NprRM-38" value="+ TemperatureMax (Double)" style="text;strokeColor=none;fillColor=#FFCCCC;align=left;verticalAlign=top;spacingLeft=4;spacingRight=4;overflow=hidden;rotatable=0;points=[[0,0.5],[1,0.5]];portConstraint=eastwest;whiteSpace=wrap;html=1;" parent="BZXfZNNT6n7So_3NprRM-33" vertex="1">
          <mxGeometry y="104" width="180" height="26" as="geometry" />
        </mxCell>
        <mxCell id="BZXfZNNT6n7So_3NprRM-76" value="+ Humidity (Int)" style="text;strokeColor=none;fillColor=#FFCCCC;align=left;verticalAlign=top;spacingLeft=4;spacingRight=4;overflow=hidden;rotatable=0;points=[[0,0.5],[1,0.5]];portConstraint=eastwest;whiteSpace=wrap;html=1;" parent="BZXfZNNT6n7So_3NprRM-33" vertex="1">
          <mxGeometry y="130" width="180" height="26" as="geometry" />
        </mxCell>
        <mxCell id="BZXfZNNT6n7So_3NprRM-78" value="+ Clounds (Int)" style="text;strokeColor=none;fillColor=#FFCCCC;align=left;verticalAlign=top;spacingLeft=4;spacingRight=4;overflow=hidden;rotatable=0;points=[[0,0.5],[1,0.5]];portConstraint=eastwest;whiteSpace=wrap;html=1;" parent="BZXfZNNT6n7So_3NprRM-33" vertex="1">
          <mxGeometry y="156" width="180" height="26" as="geometry" />
        </mxCell>
        <mxCell id="BZXfZNNT6n7So_3NprRM-77" value="+ WindSpeed (Double)" style="text;strokeColor=none;fillColor=#FFCCCC;align=left;verticalAlign=top;spacingLeft=4;spacingRight=4;overflow=hidden;rotatable=0;points=[[0,0.5],[1,0.5]];portConstraint=eastwest;whiteSpace=wrap;html=1;" parent="BZXfZNNT6n7So_3NprRM-33" vertex="1">
          <mxGeometry y="182" width="180" height="26" as="geometry" />
        </mxCell>
        <mxCell id="BZXfZNNT6n7So_3NprRM-80" value="+ RainProbability (Double)" style="text;strokeColor=none;fillColor=#FFCCCC;align=left;verticalAlign=top;spacingLeft=4;spacingRight=4;overflow=hidden;rotatable=0;points=[[0,0.5],[1,0.5]];portConstraint=eastwest;whiteSpace=wrap;html=1;" parent="BZXfZNNT6n7So_3NprRM-33" vertex="1">
          <mxGeometry y="208" width="180" height="26" as="geometry" />
        </mxCell>
        <mxCell id="BZXfZNNT6n7So_3NprRM-79" value="+ WeatherIconUrl (String)" style="text;strokeColor=none;fillColor=#FFCCCC;align=left;verticalAlign=top;spacingLeft=4;spacingRight=4;overflow=hidden;rotatable=0;points=[[0,0.5],[1,0.5]];portConstraint=eastwest;whiteSpace=wrap;html=1;" parent="BZXfZNNT6n7So_3NprRM-33" vertex="1">
          <mxGeometry y="234" width="180" height="26" as="geometry" />
        </mxCell>
        <mxCell id="BZXfZNNT6n7So_3NprRM-39" value="Scene" style="swimlane;fontStyle=0;childLayout=stackLayout;horizontal=1;startSize=26;fillColor=#FF99FF;horizontalStack=0;resizeParent=1;resizeParentMax=0;resizeLast=0;collapsible=1;marginBottom=0;html=1;" parent="WIyWlLk6GJQsqaUBKTNV-1" vertex="1">
          <mxGeometry x="568" y="606" width="140" height="104" as="geometry" />
        </mxCell>
        <mxCell id="BZXfZNNT6n7So_3NprRM-41" value="+ ID&amp;nbsp;(String)" style="text;strokeColor=none;fillColor=#FFCCFF;align=left;verticalAlign=top;spacingLeft=4;spacingRight=4;overflow=hidden;rotatable=0;points=[[0,0.5],[1,0.5]];portConstraint=eastwest;whiteSpace=wrap;html=1;" parent="BZXfZNNT6n7So_3NprRM-39" vertex="1">
          <mxGeometry y="26" width="140" height="26" as="geometry" />
        </mxCell>
        <mxCell id="BZXfZNNT6n7So_3NprRM-42" value="+ Name&amp;nbsp;(String)" style="text;strokeColor=none;fillColor=#FFCCFF;align=left;verticalAlign=top;spacingLeft=4;spacingRight=4;overflow=hidden;rotatable=0;points=[[0,0.5],[1,0.5]];portConstraint=eastwest;whiteSpace=wrap;html=1;" parent="BZXfZNNT6n7So_3NprRM-39" vertex="1">
          <mxGeometry y="52" width="140" height="26" as="geometry" />
        </mxCell>
        <mxCell id="BZXfZNNT6n7So_3NprRM-43" value="+ Color&amp;nbsp;(String)" style="text;strokeColor=none;fillColor=#FFCCFF;align=left;verticalAlign=top;spacingLeft=4;spacingRight=4;overflow=hidden;rotatable=0;points=[[0,0.5],[1,0.5]];portConstraint=eastwest;whiteSpace=wrap;html=1;" parent="BZXfZNNT6n7So_3NprRM-39" vertex="1">
          <mxGeometry y="78" width="140" height="26" as="geometry" />
        </mxCell>
        <mxCell id="BZXfZNNT6n7So_3NprRM-44" value="Inversor Yesterday" style="swimlane;fontStyle=0;childLayout=stackLayout;horizontal=1;startSize=26;fillColor=#FFCC99;horizontalStack=0;resizeParent=1;resizeParentMax=0;resizeLast=0;collapsible=1;marginBottom=0;html=1;" parent="WIyWlLk6GJQsqaUBKTNV-1" vertex="1">
          <mxGeometry x="118" y="206" width="140" height="130" as="geometry" />
        </mxCell>
        <mxCell id="BZXfZNNT6n7So_3NprRM-46" value="+ Datetime (DateTime)" style="text;strokeColor=none;fillColor=#FFE6CC;align=left;verticalAlign=top;spacingLeft=4;spacingRight=4;overflow=hidden;rotatable=0;points=[[0,0.5],[1,0.5]];portConstraint=eastwest;whiteSpace=wrap;html=1;" parent="BZXfZNNT6n7So_3NprRM-44" vertex="1">
          <mxGeometry y="26" width="140" height="26" as="geometry" />
        </mxCell>
        <mxCell id="BZXfZNNT6n7So_3NprRM-47" value="+ Battery (Int)" style="text;strokeColor=none;fillColor=#FFE6CC;align=left;verticalAlign=top;spacingLeft=4;spacingRight=4;overflow=hidden;rotatable=0;points=[[0,0.5],[1,0.5]];portConstraint=eastwest;whiteSpace=wrap;html=1;" parent="BZXfZNNT6n7So_3NprRM-44" vertex="1">
          <mxGeometry y="52" width="140" height="26" as="geometry" />
        </mxCell>
        <mxCell id="BZXfZNNT6n7So_3NprRM-48" value="+ Consumption (Int)" style="text;strokeColor=none;fillColor=#FFE6CC;align=left;verticalAlign=top;spacingLeft=4;spacingRight=4;overflow=hidden;rotatable=0;points=[[0,0.5],[1,0.5]];portConstraint=eastwest;whiteSpace=wrap;html=1;" parent="BZXfZNNT6n7So_3NprRM-44" vertex="1">
          <mxGeometry y="78" width="140" height="26" as="geometry" />
        </mxCell>
        <mxCell id="BZXfZNNT6n7So_3NprRM-49" value="+ Gain (Int)" style="text;strokeColor=none;fillColor=#FFE6CC;align=left;verticalAlign=top;spacingLeft=4;spacingRight=4;overflow=hidden;rotatable=0;points=[[0,0.5],[1,0.5]];portConstraint=eastwest;whiteSpace=wrap;html=1;" parent="BZXfZNNT6n7So_3NprRM-44" vertex="1">
          <mxGeometry y="104" width="140" height="26" as="geometry" />
        </mxCell>
        <mxCell id="BZXfZNNT6n7So_3NprRM-63" value="1" style="endArrow=open;html=1;endSize=12;startArrow=diamondThin;startSize=14;startFill=0;edgeStyle=orthogonalEdgeStyle;align=left;verticalAlign=bottom;rounded=0;exitX=1.005;exitY=0.35;exitDx=0;exitDy=0;exitPerimeter=0;entryX=-0.005;entryY=0.658;entryDx=0;entryDy=0;entryPerimeter=0;" parent="WIyWlLk6GJQsqaUBKTNV-1" source="BZXfZNNT6n7So_3NprRM-23" target="BZXfZNNT6n7So_3NprRM-41" edge="1">
          <mxGeometry x="-1" y="3" relative="1" as="geometry">
            <mxPoint x="389" y="720" as="sourcePoint" />
            <mxPoint x="549" y="720" as="targetPoint" />
          </mxGeometry>
        </mxCell>
        <mxCell id="BZXfZNNT6n7So_3NprRM-64" value="0..*" style="edgeLabel;html=1;align=center;verticalAlign=middle;resizable=0;points=[];" parent="BZXfZNNT6n7So_3NprRM-63" vertex="1" connectable="0">
          <mxGeometry x="-0.0596" y="3" relative="1" as="geometry">
            <mxPoint y="-8" as="offset" />
          </mxGeometry>
        </mxCell>
        <mxCell id="BZXfZNNT6n7So_3NprRM-65" value="1" style="endArrow=open;html=1;endSize=12;startArrow=diamondThin;startSize=14;startFill=1;edgeStyle=orthogonalEdgeStyle;align=left;verticalAlign=bottom;rounded=0;exitX=1;exitY=0.5;exitDx=0;exitDy=0;entryX=-0.005;entryY=0.068;entryDx=0;entryDy=0;entryPerimeter=0;" parent="WIyWlLk6GJQsqaUBKTNV-1" source="BZXfZNNT6n7So_3NprRM-5" target="BZXfZNNT6n7So_3NprRM-39" edge="1">
          <mxGeometry x="-1" y="3" relative="1" as="geometry">
            <mxPoint x="399" y="570" as="sourcePoint" />
            <mxPoint x="559" y="570" as="targetPoint" />
          </mxGeometry>
        </mxCell>
        <mxCell id="BZXfZNNT6n7So_3NprRM-70" value="0..*" style="edgeLabel;html=1;align=center;verticalAlign=middle;resizable=0;points=[];" parent="BZXfZNNT6n7So_3NprRM-65" vertex="1" connectable="0">
          <mxGeometry x="-0.0771" relative="1" as="geometry">
            <mxPoint as="offset" />
          </mxGeometry>
        </mxCell>
        <mxCell id="BZXfZNNT6n7So_3NprRM-66" value="1" style="endArrow=open;html=1;endSize=12;startArrow=diamondThin;startSize=14;startFill=1;edgeStyle=orthogonalEdgeStyle;align=left;verticalAlign=bottom;rounded=0;exitX=1;exitY=0.5;exitDx=0;exitDy=0;entryX=-0.003;entryY=0.174;entryDx=0;entryDy=0;entryPerimeter=0;" parent="WIyWlLk6GJQsqaUBKTNV-1" source="BZXfZNNT6n7So_3NprRM-4" target="BZXfZNNT6n7So_3NprRM-14" edge="1">
          <mxGeometry x="-1" y="3" relative="1" as="geometry">
            <mxPoint x="409" y="580" as="sourcePoint" />
            <mxPoint x="569" y="580" as="targetPoint" />
          </mxGeometry>
        </mxCell>
        <mxCell id="BZXfZNNT6n7So_3NprRM-67" value="1..1" style="edgeLabel;html=1;align=center;verticalAlign=middle;resizable=0;points=[];" parent="BZXfZNNT6n7So_3NprRM-66" vertex="1" connectable="0">
          <mxGeometry x="0.0634" relative="1" as="geometry">
            <mxPoint as="offset" />
          </mxGeometry>
        </mxCell>
        <mxCell id="BZXfZNNT6n7So_3NprRM-68" value="1" style="endArrow=open;html=1;endSize=12;startArrow=diamondThin;startSize=14;startFill=1;edgeStyle=orthogonalEdgeStyle;align=left;verticalAlign=bottom;rounded=0;exitX=1.01;exitY=0.07;exitDx=0;exitDy=0;exitPerimeter=0;entryX=-0.004;entryY=0.145;entryDx=0;entryDy=0;entryPerimeter=0;" parent="WIyWlLk6GJQsqaUBKTNV-1" source="BZXfZNNT6n7So_3NprRM-1" target="BZXfZNNT6n7So_3NprRM-10" edge="1">
          <mxGeometry x="-1" y="3" relative="1" as="geometry">
            <mxPoint x="413" y="300" as="sourcePoint" />
            <mxPoint x="573" y="300" as="targetPoint" />
            <Array as="points">
              <mxPoint x="519" y="405" />
              <mxPoint x="519" y="288" />
            </Array>
          </mxGeometry>
        </mxCell>
        <mxCell id="BZXfZNNT6n7So_3NprRM-69" value="0..*" style="edgeLabel;html=1;align=center;verticalAlign=middle;resizable=0;points=[];" parent="BZXfZNNT6n7So_3NprRM-68" vertex="1" connectable="0">
          <mxGeometry x="-0.0045" relative="1" as="geometry">
            <mxPoint as="offset" />
          </mxGeometry>
        </mxCell>
        <mxCell id="BZXfZNNT6n7So_3NprRM-71" value="1" style="endArrow=open;html=1;endSize=12;startArrow=diamondThin;startSize=14;startFill=1;edgeStyle=orthogonalEdgeStyle;align=left;verticalAlign=bottom;rounded=0;entryX=1;entryY=0.5;entryDx=0;entryDy=0;exitX=0;exitY=0.5;exitDx=0;exitDy=0;" parent="WIyWlLk6GJQsqaUBKTNV-1" source="BZXfZNNT6n7So_3NprRM-5" target="BZXfZNNT6n7So_3NprRM-21" edge="1">
          <mxGeometry x="-1" y="3" relative="1" as="geometry">
            <mxPoint x="449" y="580" as="sourcePoint" />
            <mxPoint x="289" y="580" as="targetPoint" />
            <Array as="points">
              <mxPoint x="299" y="513" />
              <mxPoint x="299" y="601" />
              <mxPoint x="389" y="601" />
              <mxPoint x="389" y="689" />
            </Array>
          </mxGeometry>
        </mxCell>
        <mxCell id="BZXfZNNT6n7So_3NprRM-81" value="0..*" style="edgeLabel;html=1;align=center;verticalAlign=middle;resizable=0;points=[];" parent="BZXfZNNT6n7So_3NprRM-71" vertex="1" connectable="0">
          <mxGeometry x="-0.1304" y="2" relative="1" as="geometry">
            <mxPoint as="offset" />
          </mxGeometry>
        </mxCell>
        <mxCell id="BZXfZNNT6n7So_3NprRM-72" value="1" style="endArrow=open;html=1;endSize=12;startArrow=diamondThin;startSize=14;startFill=1;edgeStyle=orthogonalEdgeStyle;align=left;verticalAlign=bottom;rounded=0;exitX=-0.006;exitY=0.132;exitDx=0;exitDy=0;exitPerimeter=0;entryX=1.003;entryY=0.359;entryDx=0;entryDy=0;entryPerimeter=0;" parent="WIyWlLk6GJQsqaUBKTNV-1" source="BZXfZNNT6n7So_3NprRM-1" target="BZXfZNNT6n7So_3NprRM-47" edge="1">
          <mxGeometry x="-1" y="3" relative="1" as="geometry">
            <mxPoint x="502" y="362" as="sourcePoint" />
            <mxPoint x="342" y="362" as="targetPoint" />
          </mxGeometry>
        </mxCell>
        <mxCell id="BZXfZNNT6n7So_3NprRM-73" value="0..*" style="edgeLabel;html=1;align=center;verticalAlign=middle;resizable=0;points=[];" parent="BZXfZNNT6n7So_3NprRM-72" vertex="1" connectable="0">
          <mxGeometry x="0.0878" relative="1" as="geometry">
            <mxPoint as="offset" />
          </mxGeometry>
        </mxCell>
        <mxCell id="BZXfZNNT6n7So_3NprRM-74" value="1" style="endArrow=open;html=1;endSize=12;startArrow=diamondThin;startSize=14;startFill=1;edgeStyle=orthogonalEdgeStyle;align=left;verticalAlign=bottom;rounded=0;entryX=1;entryY=0.5;entryDx=0;entryDy=0;exitX=0;exitY=0.5;exitDx=0;exitDy=0;" parent="WIyWlLk6GJQsqaUBKTNV-1" source="BZXfZNNT6n7So_3NprRM-4" target="BZXfZNNT6n7So_3NprRM-37" edge="1">
          <mxGeometry x="-1" y="3" relative="1" as="geometry">
            <mxPoint x="519" y="360" as="sourcePoint" />
            <mxPoint x="359" y="360" as="targetPoint" />
          </mxGeometry>
        </mxCell>
        <mxCell id="BZXfZNNT6n7So_3NprRM-75" value="0..*" style="edgeLabel;html=1;align=center;verticalAlign=middle;resizable=0;points=[];" parent="BZXfZNNT6n7So_3NprRM-74" vertex="1" connectable="0">
          <mxGeometry x="0.1101" y="-1" relative="1" as="geometry">
            <mxPoint y="11" as="offset" />
          </mxGeometry>
        </mxCell>
      </root>
    </mxGraphModel>
  </diagram>
</mxfile>
